<svg width="36" height="36" viewBox="0 0 36 36" fill="none" xmlns="http://www.w3.org/2000/svg">
<g clip-path="url(#clip0_1832_15003)">
<rect x="2" y="2" width="32" height="32" rx="16" fill="#21595C"/>
<g clip-path="url(#clip1_1832_15003)">
<path d="M18 20.5C22.1031 20.5 25.4286 17.2545 25.4286 13.25C25.4286 9.24551 22.1031 6 18 6C13.8969 6 10.5714 9.24551 10.5714 13.25C10.5714 17.2545 13.8969 20.5 18 20.5ZM23.2 22.3125H22.2308C20.9424 22.8902 19.5089 23.2188 18 23.2188C16.4911 23.2188 15.0634 22.8902 13.7692 22.3125H12.8C8.49375 22.3125 5 25.7223 5 29.925V32.2812C5 33.7822 6.24777 35 7.78571 35H28.2143C29.7522 35 31 33.7822 31 32.2812V29.925C31 25.7223 27.5063 22.3125 23.2 22.3125Z" fill="white"/>
</g>
</g>
<defs>
<clipPath id="clip0_1832_15003">
<rect x="2" y="2" width="32" height="32" rx="16" fill="white"/>
</clipPath>
<clipPath id="clip1_1832_15003">
<rect width="26" height="29" fill="white" transform="translate(5 6)"/>
</clipPath>
</defs>
</svg>
